<?xml version="1.0" encoding="UTF-8"?>
<!DOCTYPE svg PUBLIC "-//W3C//DTD SVG 1.1//EN" "http://www.w3.org/Graphics/SVG/1.1/DTD/svg11.dtd">
<svg xmlns="http://www.w3.org/2000/svg" version="1.1" width="512px" height="512px" style="shape-rendering:geometricPrecision; text-rendering:geometricPrecision; image-rendering:optimizeQuality; fill-rule:evenodd; clip-rule:evenodd" xmlns:xlink="http://www.w3.org/1999/xlink">
<g><path style="opacity:1" fill="#f5f6f5" d="M 233.5,-0.5 C 248.167,-0.5 262.833,-0.5 277.5,-0.5C 377.807,11.9842 449.307,63.9842 492,155.5C 502.297,180.687 508.797,206.687 511.5,233.5C 511.5,248.167 511.5,262.833 511.5,277.5C 499.018,377.805 447.018,449.305 355.5,492C 330.316,502.296 304.316,508.796 277.5,511.5C 262.833,511.5 248.167,511.5 233.5,511.5C 133.193,499.016 61.693,447.016 19,355.5C 8.70332,330.313 2.20332,304.313 -0.5,277.5C -0.5,262.833 -0.5,248.167 -0.5,233.5C 11.9821,133.195 63.9821,61.6947 155.5,19C 180.684,8.70393 206.684,2.20393 233.5,-0.5 Z M 245.5,42.5 C 331.46,42.3789 396.627,78.7122 441,151.5C 480.014,227.564 477.014,301.898 432,374.5C 378.932,446.654 307.765,476.82 218.5,465C 144.669,449.485 91.836,407.651 60,339.5C 32.778,270.832 38.1113,204.832 76,141.5C 116.599,81.6064 173.099,48.6064 245.5,42.5 Z"/></g>
<g><path style="opacity:1" fill="#f5f6f5" d="M 221.5,165.5 C 226.121,164.993 230.454,165.826 234.5,168C 270.947,194.114 307.114,220.614 343,247.5C 346.68,254.042 346.18,260.209 341.5,266C 305.887,291.28 270.553,316.946 235.5,343C 224.367,349.403 216.867,346.57 213,334.5C 212.333,281.833 212.333,229.167 213,176.5C 213.93,171.283 216.763,167.616 221.5,165.5 Z"/></g>
</svg>
